<?xml version="1.0" ?><!DOCTYPE svg  PUBLIC '-//W3C//DTD SVG 1.1//EN'  'http://www.w3.org/Graphics/SVG/1.1/DTD/svg11.dtd'><svg enable-background="new 0 0 512 512" height="512px" id="Layer_1" version="1.1" viewBox="0 0 512 512" width="512px" xml:space="preserve" xmlns="http://www.w3.org/2000/svg" xmlns:xlink="http://www.w3.org/1999/xlink"><g><g><path d="M512,256c0,141.38-114.593,256-255.983,256c-9.012,0-17.956-0.48-26.729-1.4     C100.427,497.253,0,388.367,0,256C0,114.62,114.593,0,256.017,0C388.361,0,497.22,100.42,510.602,229.207     C511.523,238.013,512,246.953,512,256z" fill="#72C6E9"/><path d="M512,256c0,141.38-114.593,256-255.983,256L103.43,384.713c-15.429-13.414-21.095-38.433-2.014-56.047     c-0.035-0.033-0.853,0.447-0.853,0.447c-5.296-6.62-10.331-15.473-13.416-24.507c0-0.033-0.033-0.033-0.033-0.073     c-11.47-33.173-1.332-71.333,28.025-94.173l130.262-101.407c32.421-25.227,82.189-26.566,118.586,12.967     c0.205,0.207,0.41,0.447,0.615,0.653c0.273,0.273,0.545,0.547,0.818,0.82c0.171-0.107,0.341-0.173,0.512-0.273     c0.853-0.514,1.707-1.027,2.527-1.434c13.409-6.293,26.355-4.227,36.013,2.454c0.103,0.033,0.171,0.106,0.24,0.173     c0.955,0.613,1.843,1.293,2.73,2.013c0.035,0.033,0.068,0.067,0.137,0.1c0.889,0.72,1.775,1.506,2.595,2.32L512,256z" opacity="0.2"/><g><g><path d="M364.761,123.46c-28.932-36.8-82.366-43.293-119.345-14.507L115.124,210.38       c-36.979,28.78-43.506,81.954-14.574,118.747L364.761,123.46z" fill="#FFE1A0"/><path d="M87.126,304.547L344.017,104.58c7.721,4.973,14.761,11.267,20.745,18.88L100.55,329.126       C94.566,321.513,90.119,313.207,87.126,304.547z" opacity="0.1"/></g><g><path d="M411.451,182.84l0.003,0.007c28.929,36.793,22.402,89.96-14.581,118.747l-130.282,101.42       c-36.983,28.793-90.419,22.3-119.355-14.506L411.451,182.84z" fill="#D1B881"/><path d="M158.78,400.54c-4.157-3.56-8.03-7.567-11.541-12.033L411.451,182.84       c3.51,4.467,6.483,9.173,8.96,14.04L158.78,400.54z" fill="#FFFFFF" opacity="0.3"/></g><g><path d="M407.541,185.894c39.786-30.98-6.904-90.36-46.693-59.387       C275.389,193.033,189.926,259.553,104.46,326.08c-39.786,30.973,6.904,90.354,46.693,59.38       C236.612,318.94,322.075,252.413,407.541,185.894z" fill="#AD2819"/><path d="M402.851,141.673C301.224,220.78,199.597,299.887,97.966,379       c-11.67-14.847-13.397-37.434,6.494-52.92c85.466-66.527,170.929-133.047,256.388-199.573       c20.455-15.92,42.706-7.94,54.12,7.753C410.975,136.1,406.921,138.507,402.851,141.673z" fill="#DD3F2F" opacity="0.5"/><path d="M121.245,393.553c5.327-1.2,10.748-3.68,16.051-7.807c85.459-66.526,170.921-133.053,256.384-199.573       c29.759-23.167,11.141-62.213-16.781-67.473c34.643-7.8,65.125,40.347,30.643,67.193       c-85.466,66.52-170.929,133.046-256.388,199.566C141.123,393.273,130.655,395.327,121.245,393.553z" opacity="0.3"/></g><g><path d="M388.439,142.387c-2.356-3-6.714-3.527-9.728-1.18c-15.004,11.673-17.661,24.133-20.001,35.127       c-2.124,9.946-3.954,18.546-14.984,27.126c-11.027,8.58-19.852,8.28-30.069,7.934c-11.284-0.38-24.075-0.813-39.076,10.866       c-15.005,11.673-17.658,24.134-20.002,35.12c-2.116,9.954-3.95,18.547-14.978,27.127c-11.027,8.586-19.845,8.287-30.062,7.94       c-11.284-0.387-24.075-0.82-39.073,10.853c-15.001,11.673-17.654,24.134-19.994,35.127c-2.121,9.947-3.951,18.546-14.981,27.12       c-3.014,2.347-3.547,6.687-1.187,9.687s6.714,3.526,9.73,1.18c15.001-11.68,17.654-24.133,19.995-35.126       c2.121-9.947,3.954-18.54,14.978-27.126c11.027-8.58,19.845-8.28,30.059-7.934c11.287,0.387,24.078,0.827,39.076-10.853       c15.001-11.68,17.658-24.14,19.998-35.127c2.12-9.947,3.95-18.54,14.978-27.12c11.034-8.593,19.854-8.287,30.068-7.946       c11.284,0.386,24.079,0.82,39.08-10.86c15.004-11.673,17.658-24.133,20.001-35.126c2.12-9.947,3.953-18.54,14.984-27.127       C390.267,149.72,390.8,145.387,388.439,142.387z" opacity="0.3"/><path d="M385.026,138.04c-2.36-3-6.717-3.533-9.734-1.187c-15.001,11.68-17.654,24.14-19.998,35.133       c-2.124,9.953-3.954,18.54-14.984,27.12c-11.027,8.594-19.852,8.287-30.065,7.947c-11.284-0.38-24.078-0.82-39.083,10.86       c-15.001,11.674-17.655,24.134-19.998,35.127c-2.117,9.953-3.947,18.54-14.978,27.12c-11.027,8.586-19.845,8.287-30.059,7.94       c-11.287-0.387-24.078-0.827-39.076,10.853c-15.001,11.68-17.654,24.134-19.994,35.127c-2.12,9.947-3.954,18.54-14.981,27.126       c-3.014,2.347-3.547,6.68-1.187,9.68s6.717,3.526,9.73,1.18c15.001-11.673,17.655-24.133,19.995-35.126       c2.12-9.947,3.953-18.54,14.978-27.126c11.027-8.58,19.848-8.28,30.062-7.934c11.284,0.387,24.075,0.827,39.073-10.853       c15.001-11.68,17.658-24.133,20.001-35.127c2.117-9.947,3.95-18.54,14.978-27.126c11.031-8.58,19.852-8.28,30.069-7.934       c11.28,0.38,24.075,0.813,39.076-10.867c15.004-11.673,17.658-24.133,20.001-35.126c2.124-9.947,3.954-18.54,14.984-27.126       C386.853,145.374,387.383,141.033,385.026,138.04z" fill="#FFC700"/></g></g></g></g></svg>