<?xml version="1.0" ?><!DOCTYPE svg  PUBLIC '-//W3C//DTD SVG 1.1//EN'  'http://www.w3.org/Graphics/SVG/1.1/DTD/svg11.dtd'><svg enable-background="new 0 0 256 256" id="Layer_1" version="1.1" viewBox="0 0 256 256" xml:space="preserve" xmlns="http://www.w3.org/2000/svg" xmlns:xlink="http://www.w3.org/1999/xlink"><g><circle cx="128" cy="128" fill="#FFD778" r="127"/><path d="M31.8,98.9h13.1v46.7h22.9v10.9h-36V98.9z" fill="#1AA386"/><path d="M146.6,156.6l-18.5-57.6h14.3l7,24.4c2,6.8,3.8,13.4,5.1,20.6h0.3c1.5-6.9,3.3-13.8,5.2-20.3l7.4-24.6h13.8   l-19.4,57.6H146.6z" fill="#1AA386"/><path d="M221.7,132.2h-21.2v13.7h23.7v10.7h-36.8V98.9H223v10.7h-22.5v12h21.2V132.2z" fill="#1AA386"/><path d="M126.1,116.8c0-9.8-8-17.8-17.8-17.8c-5.8,0-10.9,2.8-14.2,7c-3.3-4.3-8.4-7-14.2-7   c-9.8,0-17.8,8-17.8,17.8c0,4.4,1.6,8.5,4.3,11.6l27.7,28.7l27.7-28.7C124.4,125.3,126.1,121.2,126.1,116.8z" fill="#E65336"/><path d="M98.7,112c3.1-4.1,8.1-6.8,13.6-6.8c1.5,0,2.9,0.2,4.3,0.5c-2.4-1.6-5.4-2.5-8.5-2.5   c-4.9,0-9.3,2.3-12.2,5.9C97,110,97.9,110.9,98.7,112z" fill="#FFFFFF"/><path d="M81.8,105.2c3.7,0,7.1,1.2,9.9,3.2c-2.8-3.2-6.9-5.2-11.5-5.2c-8.6,0-15.5,7-15.5,15.5c0,0.6,0,1.2,0.1,1.7   C65.6,111.9,72.9,105.2,81.8,105.2z" fill="#FFFFFF"/></g></svg>