<?xml version="1.0" encoding="utf-8"?>
<!-- Generator: Adobe Illustrator 19.0.0, SVG Export Plug-In . SVG Version: 6.00 Build 0)  -->
<svg version="1.1" id="Layer_1" xmlns="http://www.w3.org/2000/svg" xmlns:xlink="http://www.w3.org/1999/xlink" x="0px" y="0px"
	 viewBox="-351 153 256 256" style="enable-background:new -351 153 256 256;" xml:space="preserve">
<style type="text/css">
	.st0{fill:#F5CF87;}
	.st1{opacity:0.2;}
	.st2{fill:#231F20;}
	.st3{opacity:0.2;fill:#231F20;enable-background:new    ;}
	.st4{fill:#E0995E;}
	.st5{fill:#4F5D73;}
</style>
<circle class="st0" cx="-223" cy="281" r="128"/>
<g class="st1">
	<path class="st2" d="M-225.9,259.9l-60.3,69.9c-2.7,2.7-2.7,7.1,0,9.8l3.1,3.1l-8.1,8.1c-2.3,2.3-2.3,6.1,0,8.5
		c1.2,1.2,2.7,1.8,4.2,1.8s3.1-0.6,4.2-1.8l8.1-8.1l2.3,2.3c2.7,2.7,7.1,2.7,9.8,0l70.7-59.4c-8.3-1.8-15.9-5.9-22-12
		C-220.2,275.6-224.2,267.9-225.9,259.9z"/>
</g>
<circle class="st3" cx="-182.3" cy="252.3" r="36.7"/>
<circle class="st4" cx="-182.3" cy="240.3" r="36.7"/>
<g>
	<path class="st5" d="M-225.9,249.9l-60.3,69.9c-2.7,2.7-2.7,7.1,0,9.8l3.1,3.1l-8.1,8.1c-2.3,2.3-2.3,6.1,0,8.5
		c1.2,1.2,2.7,1.8,4.2,1.8s3.1-0.6,4.2-1.8l8.1-8.1l2.3,2.3c2.7,2.7,7.1,2.7,9.8,0l70.7-59.4c-8.3-1.8-15.9-5.9-22-12
		C-220.2,265.6-224.2,257.9-225.9,249.9z"/>
	<path class="st5" d="M-158.8,268.5c-11.3-3.6-21.6-9.9-30.2-18.5c-10-10-16.6-22.2-19.8-35c-13.8,14.4-13.6,37.2,0.5,51.3
		c7.2,7.2,16.5,10.7,25.9,10.7C-174,277-165.6,274.1-158.8,268.5z"/>
	<path class="st5" d="M-156.4,214.4c-7.2-7.2-16.6-10.7-25.9-10.7c-5.7,0-11.4,1.3-16.6,4c2.2,12.6,8.1,24.7,17.9,34.4
		c8.7,8.7,19.2,14.3,30.3,17C-142.4,244.9-144.3,226.5-156.4,214.4z"/>
</g>
</svg>
