<?xml version="1.0" ?><!DOCTYPE svg  PUBLIC '-//W3C//DTD SVG 1.1//EN'  'http://www.w3.org/Graphics/SVG/1.1/DTD/svg11.dtd'><svg enable-background="new 0 0 128 128" id="Слой_1" version="1.1" viewBox="0 0 128 128" xml:space="preserve" xmlns="http://www.w3.org/2000/svg" xmlns:xlink="http://www.w3.org/1999/xlink"><g><path d="M63.688,2c-0.042,0-0.083,0.003-0.125,0.003C54.724,2.021,46.327,3.9,38.723,7.25   C16.918,16.856,1.688,38.643,1.688,64c0,24.463,14.172,45.609,34.75,55.695c8.19,4.015,17.393,6.282,27.125,6.301   c0.042,0,0.083,0.003,0.125,0.003c9.044,0,17.627-1.953,25.375-5.434c21.585-9.698,36.625-31.369,36.625-56.566   C125.688,29.758,97.929,2,63.688,2z" fill="#E5E2DA"/><g><path d="M95.609,58.017c-0.441,0.065-0.973,0.161-1.561,0.297c0,0,2.139,9.478,2.889,35.728V59.168    C96.938,58.457,96.313,57.913,95.609,58.017z" fill="#BEAA8D"/></g><path d="M20.168,90.213c0.152,0.17,0.317,0.327,0.493,0.472c0.181,0.149,0.37,0.289,0.573,0.409   c0.719,0.424,1.444,0.819,2.171,1.201c0.18,0.094,0.359,0.188,0.539,0.279c0.722,0.368,1.446,0.724,2.173,1.053   c0.017,0.008,0.033,0.014,0.05,0.022c0.718,0.325,1.438,0.625,2.157,0.914c0.181,0.072,0.361,0.144,0.542,0.215   c0.726,0.283,1.453,0.554,2.176,0.803c0.028,0.01,0.056,0.018,0.084,0.028c0.705,0.241,1.407,0.462,2.106,0.673   c0.177,0.053,0.355,0.107,0.531,0.158c0.714,0.208,1.424,0.406,2.127,0.585c0.039,0.01,0.077,0.018,0.116,0.028   c0.676,0.17,1.344,0.325,2.006,0.47c0.17,0.037,0.341,0.074,0.51,0.11c0.683,0.144,1.361,0.279,2.026,0.399   c0.049,0.009,0.096,0.016,0.145,0.025c0.631,0.112,1.251,0.211,1.863,0.303c0.156,0.023,0.313,0.047,0.467,0.069   c0.638,0.091,1.268,0.175,1.881,0.247c0.053,0.006,0.104,0.011,0.158,0.017c0.573,0.065,1.131,0.121,1.679,0.171   c0.141,0.013,0.283,0.026,0.423,0.038c0.576,0.049,1.141,0.092,1.684,0.126c0.049,0.003,0.095,0.005,0.144,0.008   c0.506,0.031,0.995,0.054,1.469,0.073c0.121,0.005,0.242,0.01,0.36,0.014c0.495,0.018,0.977,0.031,1.432,0.038   c0.05,0.001,0.096,0.001,0.146,0.001c0.418,0.006,0.816,0.007,1.196,0.006c0.095,0,0.192-0.001,0.285-0.001   c0.4-0.003,0.783-0.009,1.136-0.018c0.023-0.001,0.041-0.002,0.068-0.002c3.303-0.009,6.525-1.01,9.338-2.741   c1.512-0.93,3.077-1.996,4.581-3.576c0.963-1.048,1.892-2.266,2.733-3.693c0.002-0.003,0.004-0.007,0.006-0.01   c0.147-0.25,0.29-0.511,0.431-0.774c0.53-1.001,1.037-2.123,1.514-3.396l0.001-0.002c5.458-14.373,9.442-18.607,11.623-21.279   c0.014-0.017,0.029-0.035,0.043-0.053c0.003-0.003,0.007-0.007,0.009-0.01c0.14-0.172,0.311-0.364,0.505-0.572   c0.039-0.042,0.089-0.09,0.13-0.133c0.171-0.179,0.352-0.365,0.556-0.565c0.032-0.031,0.068-0.065,0.101-0.097   c0.229-0.224,0.473-0.456,0.735-0.701c0.012-0.011,0.026-0.023,0.038-0.035c0.287-0.266,0.59-0.543,0.909-0.828   c0.001-0.001,0.003-0.002,0.004-0.004c3.589-3.249,8.97-7.466,11.181-9.055c3.833-2.756,5.457-4.026,6.323-5.237   c0.003-0.004,0.007-0.008,0.01-0.013c0,0,0,0,0,0.001c0,0,0,0,0,0c0.615-0.865,0.417-1.834,0.417-1.834   C104.497,33.47,95.076,24.756,92.32,22.414c-0.396-0.336-0.97-0.299-1.331,0.061c0.017-0.019,0.033-0.041,0.05-0.06   c-0.018,0.021-0.035,0.042-0.053,0.063c-0.017,0.017-0.04,0.025-0.056,0.043c-0.318,0.371-0.632,0.751-0.947,1.13   c-7.402,8.757-13.542,19.106-17.046,25.39c-2.238,4.015-10.666,18.588-16.365,23.036c-0.212,0.163-0.424,0.318-0.635,0.464   c-6.471,4.314-7.688,3.083-16,4.917l0,0c-10.916,2-16.583,5.25-16.583,5.25s-3.75,2.083-4.167,4.083   c-0.088,0.425-0.094,0.835-0.048,1.217C19.238,88.828,19.617,89.599,20.168,90.213z" fill="#F3C3AD"/><path d="M39.938,81.625c2.833,3.167,8.75,1.667,8.75,1.667s6.083-1.417,11-7.833   c4.917-6.417,16.333-27.75,16.333-27.75s8.56-17.793,15.019-25.293c-7.875,9-14.433,20.044-18.102,26.626   c-2.323,4.167-11.313,19.708-17,23.5c-6.471,4.314-7.688,3.083-16,4.917C39.938,77.458,37.104,78.458,39.938,81.625z" fill="#745C46"/><path d="M40.639,82.262c1.289,0.988,2.947,1.319,4.428,1.372c0.991-2.661,5.214-5.45,11.182-9.196   c7.105-4.459,15.365-20.229,17.688-24.396c1.616-2.899,3.794-6.665,6.397-10.739c0.189-0.351,0.381-0.706,0.578-1.067   c0.003-0.005,0.006-0.01,0.008-0.016c0.194-0.355,0.391-0.714,0.591-1.078c0.006-0.01,0.011-0.02,0.017-0.03   c0.82-1.484,1.693-3.022,2.596-4.55c0.016-0.027,0.032-0.054,0.048-0.081c0.199-0.336,0.399-0.671,0.6-1.005   c0.063-0.105,0.127-0.209,0.191-0.314c0.158-0.26,0.315-0.519,0.474-0.776c0.077-0.125,0.154-0.249,0.232-0.373   c0.145-0.234,0.291-0.467,0.437-0.698c0.087-0.137,0.173-0.272,0.26-0.408c0.138-0.216,0.276-0.43,0.414-0.643   c0.091-0.14,0.182-0.279,0.273-0.417c0.134-0.204,0.268-0.406,0.402-0.607c0.094-0.141,0.189-0.282,0.283-0.421   c0.13-0.192,0.26-0.38,0.389-0.568c0.096-0.139,0.192-0.278,0.288-0.415c0.13-0.185,0.26-0.367,0.39-0.547   c0.093-0.13,0.186-0.26,0.279-0.387c0.135-0.184,0.269-0.362,0.403-0.54c0.087-0.115,0.174-0.233,0.26-0.345   c0.147-0.192,0.292-0.375,0.438-0.558c0.072-0.09,0.144-0.184,0.215-0.272c0.216-0.267,0.43-0.525,0.642-0.771   c-7.875,9-14.433,20.044-18.102,26.626c-2.323,4.167-11.312,19.708-17,23.5c-6.471,4.314-7.688,3.083-16,4.917c0,0-2.833,1,0,4.167   C40.153,81.866,40.392,82.072,40.639,82.262L40.639,82.262z" fill="#010202" opacity="0.15"/><g><path d="M106.504,46.931c-0.067-0.343-0.317-0.607-0.659-0.544c0.003-0.004,0.006-0.008,0.009-0.013    c-0.003,0.004-0.007,0.008-0.01,0.013c-0.866,1.211-2.49,2.481-6.323,5.237c-2.211,1.589-7.592,5.807-11.181,9.055    c-1.23,1.102-2.237,2.073-2.841,2.781c-0.042,0.049-0.098,0.107-0.136,0.154c-0.003,0.003-0.007,0.007-0.009,0.01    c-0.014,0.017-0.029,0.035-0.043,0.053c-2.181,2.673-6.165,6.906-11.623,21.279l0,0.001c-0.478,1.273-0.985,2.395-1.515,3.397    c-0.142,0.263-0.284,0.523-0.431,0.774c-0.002,0.003-0.004,0.007-0.006,0.01c-0.84,1.427-1.769,2.645-2.733,3.693    c-1.504,1.579-3.069,2.645-4.581,3.576c-2.814,1.731-6.035,2.732-9.338,2.741c-0.028,0-0.046,0.001-0.068,0.002    c-0.352,0.009-0.736,0.015-1.136,0.018c-0.093,0.001-0.189,0.001-0.285,0.001c-0.381,0.001-0.778,0-1.196-0.006    c-0.05-0.001-0.096-0.001-0.146-0.001c-0.455-0.007-0.937-0.021-1.432-0.038c-0.118-0.004-0.239-0.009-0.36-0.014    c-0.474-0.019-0.963-0.043-1.469-0.073c-0.049-0.003-0.095-0.005-0.144-0.008v0l0,0h0c-0.543-0.034-1.108-0.077-1.684-0.126    c-0.14-0.012-0.281-0.025-0.423-0.038c-0.547-0.05-1.106-0.106-1.679-0.171c-0.053-0.006-0.104-0.011-0.158-0.017    c-0.613-0.071-1.243-0.155-1.881-0.247c-0.155-0.022-0.311-0.046-0.467-0.069c-0.612-0.092-1.232-0.191-1.863-0.303    c-0.049-0.009-0.096-0.016-0.145-0.025l0,0c-0.665-0.12-1.343-0.255-2.026-0.399c-0.169-0.036-0.34-0.073-0.51-0.11    c-0.663-0.145-1.331-0.299-2.006-0.47c-0.039-0.01-0.077-0.018-0.116-0.028c-0.703-0.179-1.414-0.377-2.127-0.585    c-0.177-0.052-0.354-0.105-0.531-0.158c-0.699-0.211-1.401-0.432-2.106-0.673c-0.028-0.01-0.056-0.018-0.084-0.028    c-0.723-0.249-1.449-0.52-2.176-0.803c-0.18-0.07-0.361-0.142-0.542-0.215c-0.719-0.289-1.439-0.589-2.157-0.914    c-0.017-0.008-0.033-0.014-0.05-0.022c-0.727-0.329-1.451-0.685-2.173-1.053c-0.18-0.092-0.359-0.185-0.539-0.279    c-0.727-0.382-1.452-0.777-2.171-1.201c-0.203-0.12-0.392-0.26-0.573-0.409c-0.177-0.145-0.341-0.303-0.493-0.472    c-0.551-0.615-0.928-1.374-1.029-2.204c-0.049-0.398-0.009-1.075,0.157-1.572c0,0-0.421,0.907-0.421,1.73    c0,0.894,0.284,1.67,0.921,2.38c0.169,0.188,0.352,0.364,0.548,0.525c0.201,0.165,0.411,0.32,0.636,0.454    c0.726,0.429,1.458,0.828,2.193,1.213l0.544,0.282c0.729,0.372,1.46,0.73,2.244,1.085c0.725,0.328,1.451,0.631,2.177,0.923    l0.546,0.216c0.733,0.285,1.465,0.559,2.279,0.838c0.711,0.243,1.419,0.466,2.123,0.678l0.537,0.16    c0.719,0.209,1.435,0.409,2.144,0.589l0.117,0.029c0.68,0.171,1.353,0.327,2.021,0.474l0.514,0.11    c0.63,0.133,1.252,0.255,1.867,0.368l-0.001,0.002c0.034,0.006,0.076,0.013,0.112,0.019c0.021,0.004,0.042,0.009,0.063,0.012    l0-0.001c0.626,0.11,1.457,0.246,2.023,0.331l0.47,0.069c0.643,0.092,1.277,0.176,1.894,0.249l0.158,0.017    c0.577,0.066,1.139,0.123,1.689,0.173l0.427,0.038c0.481,0.041,1.269,0.096,1.84,0.133l0,0.002    c0.052,0.003,0.099,0.005,0.151,0.008c0.058,0.004,0.129,0.008,0.179,0.011l-0.002-0.003c0.39,0.022,0.779,0.043,1.151,0.057    l0.363,0.014c0.499,0.018,0.983,0.031,1.439,0.039c0,0,0.781,0.008,1.08,0.008l0.561-0.002c0.403-0.003,0.79-0.009,1.202-0.02    c3.3-0.009,6.62-0.982,9.599-2.815c1.503-0.925,3.111-2.008,4.687-3.663c1.054-1.147,1.994-2.417,2.801-3.788    c0.15-0.255,0.295-0.521,0.442-0.793c0.56-1.058,1.078-2.221,1.541-3.454c5.055-13.312,8.819-17.852,11.067-20.564l0.522-0.633    c0.009-0.011,0.023-0.025,0.032-0.037c0.126-0.153,0.274-0.32,0.443-0.501c0.473-0.507,1.099-1.115,1.835-1.79    c2.07-1.897,4.656-3.161,7.433-3.575c0.042-0.006,0.083-0.012,0.123-0.018c0.702-0.103,1.326,0.443,1.326,1.152v34.873    c0,0.276,0.224,0.5,0.5,0.5h3.002c0.273,0,0.495-0.227,0.497-0.5c0.134-18.288,1.052-29.421,2.083-34.291    c1.042-4.917,1.958-8.083,2.833-10.042C106.373,48.547,106.688,47.875,106.504,46.931z" fill="#745C46"/><path d="M85.998,62.909c-0.041,0.043-0.091,0.092-0.13,0.133l0,0l0.492,0.212c0.167-0.176,0.346-0.358,0.545-0.555    l-0.351-0.356l0,0C86.351,62.544,86.169,62.73,85.998,62.909z" fill="#525150"/><polygon fill="#525150" points="85.868,63.043 85.868,63.043 85.868,63.043   "/><polygon fill="#525150" points="86.554,62.344 86.554,62.344 86.554,62.344   "/><polygon fill="#525150" points="48.848,99.027 48.848,99.027 48.848,99.027   "/><polygon fill="#525150" points="40.549,98.031 40.549,98.031 40.549,98.031   "/></g><g><path d="M106.167,45.752c-0.028,0.084-0.063,0.17-0.103,0.256c0.036-0.074,0.069-0.152,0.096-0.231    C106.163,45.769,106.165,45.76,106.167,45.752z" fill="#CE4A46"/><path d="M106.504,46.931c-0.067-0.343-0.317-0.607-0.659-0.544    c0.003-0.004,0.006-0.008,0.009-0.013c0,0,0.072-0.108,0.151-0.254c0.191-0.358,0.267-0.714,0.288-0.998    c0.006-0.07,0.01-0.125,0.008-0.133l-0.004,0.005c0.006-0.27-0.027-0.452-0.027-0.452C104.497,33.47,95.076,24.756,92.32,22.414    c-0.416-0.353-1.035-0.306-1.39,0.108c-0.069,0.08-0.136,0.164-0.205,0.244c3.159,2.757,11.847,13.179,13.545,23.776l0.03,0.448    c0.002,0.009-0.001,0.063-0.008,0.133c-0.021,0.284-0.097,0.64-0.288,0.998c-0.079,0.146-0.151,0.254-0.151,0.254    c-0.003,0.004-0.006,0.008-0.009,0.013c0.342-0.064,0.592,0.201,0.659,0.544c0.183,0.944-0.131,1.615-0.65,2.777    c-0.875,1.958-1.792,3.125-2.833,8.042c-1.031,4.869-1.949,15.993-2.083,34.268c-0.002,0.283-0.214,0.524-0.498,0.524h2    c0.283,0,0.495-0.241,0.498-0.524c0.135-18.274,1.052-29.399,2.083-34.268c1.042-4.917,1.958-8.083,2.833-10.042    C106.373,48.547,106.688,47.875,106.504,46.931z" fill="#010202" opacity="0.15"/></g><path d="M96.938,91.708v2.333c0,0.276,0.224,0.5,0.5,0.5h3.002c0.283,0,0.495-0.241,0.498-0.524   c0.006-0.789,0.015-1.547,0.024-2.309H96.938z" fill="#010202" opacity="0.15"/></g><g><path d="M63.688,2c-0.042,0-0.083,0.003-0.125,0.003C54.724,2.021,46.327,3.9,38.723,7.25   C16.918,16.856,1.688,38.643,1.688,64c0,24.463,14.172,45.609,34.75,55.695c8.19,4.015,17.393,6.282,27.125,6.301   c0.042,0,0.083,0.003,0.125,0.003c9.044,0,17.627-1.953,25.375-5.434c21.585-9.698,36.625-31.369,36.625-56.566   C125.688,29.758,97.929,2,63.688,2z" fill="#ACD6BF"/><g><path d="M95.609,58.017c-0.441,0.065-0.973,0.161-1.561,0.297c0,0,2.139,9.478,2.889,35.728V59.168    C96.938,58.457,96.313,57.913,95.609,58.017z" fill="#726657"/></g><path d="M20.168,90.213c0.152,0.17,0.317,0.327,0.493,0.472c0.181,0.149,0.37,0.289,0.573,0.409   c0.719,0.424,1.444,0.819,2.171,1.201c0.18,0.094,0.359,0.188,0.539,0.279c0.722,0.368,1.446,0.724,2.173,1.053   c0.017,0.008,0.033,0.014,0.05,0.022c0.718,0.325,1.438,0.625,2.157,0.914c0.181,0.072,0.361,0.144,0.542,0.215   c0.726,0.283,1.453,0.554,2.176,0.803c0.028,0.01,0.056,0.018,0.084,0.028c0.705,0.241,1.407,0.462,2.106,0.673   c0.177,0.053,0.355,0.107,0.531,0.158c0.714,0.208,1.424,0.406,2.127,0.585c0.039,0.01,0.077,0.018,0.116,0.028   c0.676,0.17,1.344,0.325,2.006,0.47c0.17,0.037,0.341,0.074,0.51,0.11c0.683,0.144,1.361,0.279,2.026,0.399   c0.049,0.009,0.096,0.016,0.145,0.025c0.631,0.112,1.251,0.211,1.863,0.303c0.156,0.023,0.313,0.047,0.467,0.069   c0.638,0.091,1.268,0.175,1.881,0.247c0.053,0.006,0.104,0.011,0.158,0.017c0.573,0.065,1.131,0.121,1.679,0.171   c0.141,0.013,0.283,0.026,0.423,0.038c0.576,0.049,1.141,0.092,1.684,0.126c0.049,0.003,0.095,0.005,0.144,0.008   c0.506,0.031,0.995,0.054,1.469,0.073c0.121,0.005,0.242,0.01,0.36,0.014c0.495,0.018,0.977,0.031,1.432,0.038   c0.05,0.001,0.096,0.001,0.146,0.001c0.418,0.006,0.816,0.007,1.196,0.006c0.095,0,0.192-0.001,0.285-0.001   c0.4-0.003,0.783-0.009,1.136-0.018c0.023-0.001,0.041-0.002,0.068-0.002c3.303-0.009,6.525-1.01,9.338-2.741   c1.512-0.93,3.077-1.996,4.581-3.576c0.963-1.048,1.892-2.266,2.733-3.693c0.002-0.003,0.004-0.007,0.006-0.01   c0.147-0.25,0.29-0.511,0.431-0.774c0.53-1.001,1.037-2.123,1.514-3.396l0.001-0.002c5.458-14.373,9.442-18.607,11.623-21.279   c0.014-0.017,0.029-0.035,0.043-0.053c0.003-0.003,0.007-0.007,0.009-0.01c0.14-0.172,0.311-0.364,0.505-0.572   c0.039-0.042,0.089-0.09,0.13-0.133c0.171-0.179,0.352-0.365,0.556-0.565c0.032-0.031,0.068-0.065,0.101-0.097   c0.229-0.224,0.473-0.456,0.735-0.701c0.012-0.011,0.026-0.023,0.038-0.035c0.287-0.266,0.59-0.543,0.909-0.828   c0.001-0.001,0.003-0.002,0.004-0.004c3.589-3.249,8.97-7.466,11.181-9.055c3.833-2.756,5.457-4.026,6.323-5.237   c0.003-0.004,0.007-0.008,0.01-0.013c0,0,0,0,0,0.001c0,0,0,0,0,0c0.615-0.865,0.417-1.834,0.417-1.834   C104.497,33.47,95.076,24.756,92.32,22.414c-0.396-0.336-0.97-0.299-1.331,0.061c0.017-0.019,0.033-0.041,0.05-0.06   c-0.018,0.021-0.035,0.042-0.053,0.063c-0.017,0.017-0.04,0.025-0.056,0.043c-0.318,0.371-0.632,0.751-0.947,1.13   c-7.402,8.757-13.542,19.106-17.046,25.39c-2.238,4.015-10.666,18.588-16.365,23.036c-0.212,0.163-0.424,0.318-0.635,0.464   c-6.471,4.314-7.688,3.083-16,4.917l0,0c-10.916,2-16.583,5.25-16.583,5.25s-3.75,2.083-4.167,4.083   c-0.088,0.425-0.094,0.835-0.048,1.217C19.238,88.828,19.617,89.599,20.168,90.213z" fill="#E9705A"/><path d="M39.938,81.625c2.833,3.167,8.75,1.667,8.75,1.667s6.083-1.417,11-7.833   c4.917-6.417,16.333-27.75,16.333-27.75s8.56-17.793,15.019-25.293c-7.875,9-14.433,20.044-18.102,26.626   c-2.323,4.167-11.313,19.708-17,23.5c-6.471,4.314-7.688,3.083-16,4.917C39.938,77.458,37.104,78.458,39.938,81.625z" fill="#FCD583"/><path d="M40.639,82.262c1.289,0.988,2.947,1.319,4.428,1.372c0.991-2.661,5.214-5.45,11.182-9.196   c7.105-4.459,15.365-20.229,17.688-24.396c1.616-2.899,3.794-6.665,6.397-10.739c0.189-0.351,0.381-0.706,0.578-1.067   c0.003-0.005,0.006-0.01,0.008-0.016c0.194-0.355,0.391-0.714,0.591-1.078c0.006-0.01,0.011-0.02,0.017-0.03   c0.82-1.484,1.693-3.022,2.596-4.55c0.016-0.027,0.032-0.054,0.048-0.081c0.199-0.336,0.399-0.671,0.6-1.005   c0.063-0.105,0.127-0.209,0.191-0.314c0.158-0.26,0.315-0.519,0.474-0.776c0.077-0.125,0.154-0.249,0.232-0.373   c0.145-0.234,0.291-0.467,0.437-0.698c0.087-0.137,0.173-0.272,0.26-0.408c0.138-0.216,0.276-0.43,0.414-0.643   c0.091-0.14,0.182-0.279,0.273-0.417c0.134-0.204,0.268-0.406,0.402-0.607c0.094-0.141,0.189-0.282,0.283-0.421   c0.13-0.192,0.26-0.38,0.389-0.568c0.096-0.139,0.192-0.278,0.288-0.415c0.13-0.185,0.26-0.367,0.39-0.547   c0.093-0.13,0.186-0.26,0.279-0.387c0.135-0.184,0.269-0.362,0.403-0.54c0.087-0.115,0.174-0.233,0.26-0.345   c0.147-0.192,0.292-0.375,0.438-0.558c0.072-0.09,0.144-0.184,0.215-0.272c0.216-0.267,0.43-0.525,0.642-0.771   c-7.875,9-14.433,20.044-18.102,26.626c-2.323,4.167-11.312,19.708-17,23.5c-6.471,4.314-7.688,3.083-16,4.917c0,0-2.833,1,0,4.167   C40.153,81.866,40.392,82.072,40.639,82.262L40.639,82.262z" fill="#010202" opacity="0.15"/><g><path d="M106.504,46.931c-0.067-0.343-0.317-0.607-0.659-0.544c0.003-0.004,0.006-0.008,0.009-0.013    c-0.003,0.004-0.007,0.008-0.01,0.013c-0.866,1.211-2.49,2.481-6.323,5.237c-2.211,1.589-7.592,5.807-11.181,9.055    c-1.23,1.102-2.237,2.073-2.841,2.781c-0.042,0.049-0.098,0.107-0.136,0.154c-0.003,0.003-0.007,0.007-0.009,0.01    c-0.014,0.017-0.029,0.035-0.043,0.053c-2.181,2.673-6.165,6.906-11.623,21.279l0,0.001c-0.478,1.273-0.985,2.395-1.515,3.397    c-0.142,0.263-0.284,0.523-0.431,0.774c-0.002,0.003-0.004,0.007-0.006,0.01c-0.84,1.427-1.769,2.645-2.733,3.693    c-1.504,1.579-3.069,2.645-4.581,3.576c-2.814,1.731-6.035,2.732-9.338,2.741c-0.028,0-0.046,0.001-0.068,0.002    c-0.352,0.009-0.736,0.015-1.136,0.018c-0.093,0.001-0.189,0.001-0.285,0.001c-0.381,0.001-0.778,0-1.196-0.006    c-0.05-0.001-0.096-0.001-0.146-0.001c-0.455-0.007-0.937-0.021-1.432-0.038c-0.118-0.004-0.239-0.009-0.36-0.014    c-0.474-0.019-0.963-0.043-1.469-0.073c-0.049-0.003-0.095-0.005-0.144-0.008v0l0,0h0c-0.543-0.034-1.108-0.077-1.684-0.126    c-0.14-0.012-0.281-0.025-0.423-0.038c-0.547-0.05-1.106-0.106-1.679-0.171c-0.053-0.006-0.104-0.011-0.158-0.017    c-0.613-0.071-1.243-0.155-1.881-0.247c-0.155-0.022-0.311-0.046-0.467-0.069c-0.612-0.092-1.232-0.191-1.863-0.303    c-0.049-0.009-0.096-0.016-0.145-0.025l0,0c-0.665-0.12-1.343-0.255-2.026-0.399c-0.169-0.036-0.34-0.073-0.51-0.11    c-0.663-0.145-1.331-0.299-2.006-0.47c-0.039-0.01-0.077-0.018-0.116-0.028c-0.703-0.179-1.414-0.377-2.127-0.585    c-0.177-0.052-0.354-0.105-0.531-0.158c-0.699-0.211-1.401-0.432-2.106-0.673c-0.028-0.01-0.056-0.018-0.084-0.028    c-0.723-0.249-1.449-0.52-2.176-0.803c-0.18-0.07-0.361-0.142-0.542-0.215c-0.719-0.289-1.439-0.589-2.157-0.914    c-0.017-0.008-0.033-0.014-0.05-0.022c-0.727-0.329-1.451-0.685-2.173-1.053c-0.18-0.092-0.359-0.185-0.539-0.279    c-0.727-0.382-1.452-0.777-2.171-1.201c-0.203-0.12-0.392-0.26-0.573-0.409c-0.177-0.145-0.341-0.303-0.493-0.472    c-0.551-0.615-0.928-1.374-1.029-2.204c-0.049-0.398-0.009-1.075,0.157-1.572c0,0-0.421,0.907-0.421,1.73    c0,0.894,0.284,1.67,0.921,2.38c0.169,0.188,0.352,0.364,0.548,0.525c0.201,0.165,0.411,0.32,0.636,0.454    c0.726,0.429,1.458,0.828,2.193,1.213l0.544,0.282c0.729,0.372,1.46,0.73,2.244,1.085c0.725,0.328,1.451,0.631,2.177,0.923    l0.546,0.216c0.733,0.285,1.465,0.559,2.279,0.838c0.711,0.243,1.419,0.466,2.123,0.678l0.537,0.16    c0.719,0.209,1.435,0.409,2.144,0.589l0.117,0.029c0.68,0.171,1.353,0.327,2.021,0.474l0.514,0.11    c0.63,0.133,1.252,0.255,1.867,0.368l-0.001,0.002c0.034,0.006,0.076,0.013,0.112,0.019c0.021,0.004,0.042,0.009,0.063,0.012    l0-0.001c0.626,0.11,1.457,0.246,2.023,0.331l0.47,0.069c0.643,0.092,1.277,0.176,1.894,0.249l0.158,0.017    c0.577,0.066,1.139,0.123,1.689,0.173l0.427,0.038c0.481,0.041,1.269,0.096,1.84,0.133l0,0.002    c0.052,0.003,0.099,0.005,0.151,0.008c0.058,0.004,0.129,0.008,0.179,0.011l-0.002-0.003c0.39,0.022,0.779,0.043,1.151,0.057    l0.363,0.014c0.499,0.018,0.983,0.031,1.439,0.039c0,0,0.781,0.008,1.08,0.008l0.561-0.002c0.403-0.003,0.79-0.009,1.202-0.02    c3.3-0.009,6.62-0.982,9.599-2.815c1.503-0.925,3.111-2.008,4.687-3.663c1.054-1.147,1.994-2.417,2.801-3.788    c0.15-0.255,0.295-0.521,0.442-0.793c0.56-1.058,1.078-2.221,1.541-3.454c5.055-13.312,8.819-17.852,11.067-20.564l0.522-0.633    c0.009-0.011,0.023-0.025,0.032-0.037c0.126-0.153,0.274-0.32,0.443-0.501c0.473-0.507,1.099-1.115,1.835-1.79    c2.07-1.897,4.656-3.161,7.433-3.575c0.042-0.006,0.083-0.012,0.123-0.018c0.702-0.103,1.326,0.443,1.326,1.152v34.873    c0,0.276,0.224,0.5,0.5,0.5h3.002c0.273,0,0.495-0.227,0.497-0.5c0.134-18.288,1.052-29.421,2.083-34.291    c1.042-4.917,1.958-8.083,2.833-10.042C106.373,48.547,106.688,47.875,106.504,46.931z" fill="#BEAA8D"/><path d="M85.998,62.909c-0.041,0.043-0.091,0.092-0.13,0.133l0,0l0.492,0.212c0.167-0.176,0.346-0.358,0.545-0.555    l-0.351-0.356l0,0C86.351,62.544,86.169,62.73,85.998,62.909z" fill="#525150"/><polygon fill="#525150" points="85.868,63.043 85.868,63.043 85.868,63.043   "/><polygon fill="#525150" points="86.554,62.344 86.554,62.344 86.554,62.344   "/><polygon fill="#525150" points="48.848,99.027 48.848,99.027 48.848,99.027   "/><polygon fill="#525150" points="40.549,98.031 40.549,98.031 40.549,98.031   "/></g><g><path d="M106.167,45.752c-0.028,0.084-0.063,0.17-0.103,0.256c0.036-0.074,0.069-0.152,0.096-0.231    C106.163,45.769,106.165,45.76,106.167,45.752z" fill="#CE4A46"/><path d="M106.504,46.931c-0.067-0.343-0.317-0.607-0.659-0.544    c0.003-0.004,0.006-0.008,0.009-0.013c0,0,0.072-0.108,0.151-0.254c0.191-0.358,0.267-0.714,0.288-0.998    c0.006-0.07,0.01-0.125,0.008-0.133l-0.004,0.005c0.006-0.27-0.027-0.452-0.027-0.452C104.497,33.47,95.076,24.756,92.32,22.414    c-0.416-0.353-1.035-0.306-1.39,0.108c-0.069,0.08-0.136,0.164-0.205,0.244c3.159,2.757,11.847,13.179,13.545,23.776l0.03,0.448    c0.002,0.009-0.001,0.063-0.008,0.133c-0.021,0.284-0.097,0.64-0.288,0.998c-0.079,0.146-0.151,0.254-0.151,0.254    c-0.003,0.004-0.006,0.008-0.009,0.013c0.342-0.064,0.592,0.201,0.659,0.544c0.183,0.944-0.131,1.615-0.65,2.777    c-0.875,1.958-1.792,3.125-2.833,8.042c-1.031,4.869-1.949,15.993-2.083,34.268c-0.002,0.283-0.214,0.524-0.498,0.524h2    c0.283,0,0.495-0.241,0.498-0.524c0.135-18.274,1.052-29.399,2.083-34.268c1.042-4.917,1.958-8.083,2.833-10.042    C106.373,48.547,106.688,47.875,106.504,46.931z" fill="#010202" opacity="0.15"/></g><path d="M96.938,91.708v2.333c0,0.276,0.224,0.5,0.5,0.5h3.002c0.283,0,0.495-0.241,0.498-0.524   c0.006-0.789,0.015-1.547,0.024-2.309H96.938z" fill="#010202" opacity="0.15"/></g></svg>